<mxfile host="app.diagrams.net" modified="2023-08-29T10:22:38.279Z" agent="Mozilla/5.0 (Windows NT 10.0; Win64; x64) AppleWebKit/537.36 (KHTML, like Gecko) Chrome/116.0.0.0 Safari/537.36" etag="It1pozhPn3Y_n9hiA-9O" version="21.6.9" type="github">
  <diagram id="C5RBs43oDa-KdzZeNtuy" name="Page-1">
    <mxGraphModel dx="830" dy="503" grid="1" gridSize="10" guides="1" tooltips="1" connect="1" arrows="1" fold="1" page="1" pageScale="1" pageWidth="827" pageHeight="1169" math="0" shadow="0">
      <root>
        <mxCell id="WIyWlLk6GJQsqaUBKTNV-0" />
        <mxCell id="WIyWlLk6GJQsqaUBKTNV-1" parent="WIyWlLk6GJQsqaUBKTNV-0" />
        <mxCell id="T6cB0rv3VapHdPkZTwZW-23" style="edgeStyle=orthogonalEdgeStyle;rounded=0;orthogonalLoop=1;jettySize=auto;html=1;entryX=0.5;entryY=0;entryDx=0;entryDy=0;" edge="1" parent="WIyWlLk6GJQsqaUBKTNV-1" source="T6cB0rv3VapHdPkZTwZW-2">
          <mxGeometry relative="1" as="geometry">
            <mxPoint x="298.0000000000002" y="590" as="targetPoint" />
          </mxGeometry>
        </mxCell>
        <mxCell id="T6cB0rv3VapHdPkZTwZW-104" style="edgeStyle=orthogonalEdgeStyle;rounded=0;orthogonalLoop=1;jettySize=auto;html=1;exitX=0;exitY=0.5;exitDx=0;exitDy=0;entryX=0;entryY=0.5;entryDx=0;entryDy=0;" edge="1" parent="WIyWlLk6GJQsqaUBKTNV-1" source="T6cB0rv3VapHdPkZTwZW-2" target="T6cB0rv3VapHdPkZTwZW-95">
          <mxGeometry relative="1" as="geometry">
            <mxPoint x="238" y="1040" as="targetPoint" />
            <Array as="points">
              <mxPoint x="218" y="550" />
              <mxPoint x="218" y="958" />
            </Array>
          </mxGeometry>
        </mxCell>
        <mxCell id="T6cB0rv3VapHdPkZTwZW-2" value="采集图片信息" style="rounded=1;whiteSpace=wrap;html=1;fontSize=10;glass=0;strokeWidth=1;shadow=0;" vertex="1" parent="WIyWlLk6GJQsqaUBKTNV-1">
          <mxGeometry x="238" y="530" width="120" height="40" as="geometry" />
        </mxCell>
        <mxCell id="T6cB0rv3VapHdPkZTwZW-56" value="Vertical Container" style="swimlane;whiteSpace=wrap;html=1;" vertex="1" parent="WIyWlLk6GJQsqaUBKTNV-1">
          <mxGeometry x="250" y="80" width="476" height="285" as="geometry" />
        </mxCell>
        <mxCell id="T6cB0rv3VapHdPkZTwZW-25" value="" style="group" vertex="1" connectable="0" parent="T6cB0rv3VapHdPkZTwZW-56">
          <mxGeometry x="220" y="50" width="346" height="250" as="geometry" />
        </mxCell>
        <mxCell id="T6cB0rv3VapHdPkZTwZW-26" value="" style="group" vertex="1" connectable="0" parent="T6cB0rv3VapHdPkZTwZW-25">
          <mxGeometry x="-50" y="-20" width="346" height="250" as="geometry" />
        </mxCell>
        <mxCell id="WIyWlLk6GJQsqaUBKTNV-2" value="\" style="rounded=0;html=1;jettySize=auto;orthogonalLoop=1;fontSize=10;endArrow=block;endFill=0;endSize=8;strokeWidth=1;shadow=0;labelBackgroundColor=none;edgeStyle=orthogonalEdgeStyle;" parent="T6cB0rv3VapHdPkZTwZW-26" source="WIyWlLk6GJQsqaUBKTNV-3" edge="1">
          <mxGeometry relative="1" as="geometry">
            <mxPoint x="60" y="70" as="targetPoint" />
          </mxGeometry>
        </mxCell>
        <mxCell id="WIyWlLk6GJQsqaUBKTNV-3" value="读取图片RGB信息" style="rounded=1;whiteSpace=wrap;html=1;fontSize=10;glass=0;strokeWidth=1;shadow=0;" parent="T6cB0rv3VapHdPkZTwZW-26" vertex="1">
          <mxGeometry width="120" height="40" as="geometry" />
        </mxCell>
        <mxCell id="oBWqoQV49xNepyR7PkPC-4" style="edgeStyle=orthogonalEdgeStyle;rounded=0;orthogonalLoop=1;jettySize=auto;html=1;exitX=0.5;exitY=1;exitDx=0;exitDy=0;entryX=0.5;entryY=0;entryDx=0;entryDy=0;fontSize=10;" parent="T6cB0rv3VapHdPkZTwZW-26" source="WIyWlLk6GJQsqaUBKTNV-11" edge="1">
          <mxGeometry relative="1" as="geometry">
            <mxPoint x="62" y="210" as="targetPoint" />
          </mxGeometry>
        </mxCell>
        <mxCell id="WIyWlLk6GJQsqaUBKTNV-11" value="计算本质矩阵" style="rounded=1;whiteSpace=wrap;html=1;fontSize=10;glass=0;strokeWidth=1;shadow=0;" parent="T6cB0rv3VapHdPkZTwZW-26" vertex="1">
          <mxGeometry y="140" width="120" height="40" as="geometry" />
        </mxCell>
        <mxCell id="oBWqoQV49xNepyR7PkPC-2" style="edgeStyle=orthogonalEdgeStyle;rounded=0;orthogonalLoop=1;jettySize=auto;html=1;exitX=0.5;exitY=1;exitDx=0;exitDy=0;entryX=0.5;entryY=0;entryDx=0;entryDy=0;fontSize=10;" parent="T6cB0rv3VapHdPkZTwZW-26" source="oBWqoQV49xNepyR7PkPC-0" edge="1">
          <mxGeometry relative="1" as="geometry">
            <mxPoint x="60" y="140" as="targetPoint" />
          </mxGeometry>
        </mxCell>
        <mxCell id="oBWqoQV49xNepyR7PkPC-0" value="特征提取与匹配" style="rounded=1;whiteSpace=wrap;html=1;fontSize=10;glass=0;strokeWidth=1;shadow=0;" parent="T6cB0rv3VapHdPkZTwZW-26" vertex="1">
          <mxGeometry y="70" width="120" height="40" as="geometry" />
        </mxCell>
        <mxCell id="oBWqoQV49xNepyR7PkPC-6" value="奇异值分解" style="text;html=1;align=center;verticalAlign=middle;resizable=0;points=[];autosize=1;strokeColor=none;fillColor=none;fontSize=10;" parent="T6cB0rv3VapHdPkZTwZW-26" vertex="1">
          <mxGeometry x="59" y="180" width="80" height="30" as="geometry" />
        </mxCell>
        <mxCell id="oBWqoQV49xNepyR7PkPC-8" value="&lt;span style=&quot;color: rgb(55, 65, 81); font-family: Söhne, ui-sans-serif, system-ui, -apple-system, &amp;quot;Segoe UI&amp;quot;, Roboto, Ubuntu, Cantarell, &amp;quot;Noto Sans&amp;quot;, sans-serif, &amp;quot;Helvetica Neue&amp;quot;, Arial, &amp;quot;Apple Color Emoji&amp;quot;, &amp;quot;Segoe UI Emoji&amp;quot;, &amp;quot;Segoe UI Symbol&amp;quot;, &amp;quot;Noto Color Emoji&amp;quot;; font-size: 10px; font-style: normal; font-variant-ligatures: normal; font-variant-caps: normal; font-weight: 400; letter-spacing: normal; orphans: 2; text-align: start; text-indent: 0px; text-transform: none; widows: 2; word-spacing: 0px; -webkit-text-stroke-width: 0px; background-color: rgb(247, 247, 248); text-decoration-thickness: initial; text-decoration-style: initial; text-decoration-color: initial; float: none; display: inline !important;&quot;&gt;SIFT（尺度不变特征变换）&lt;/span&gt;" style="text;whiteSpace=wrap;html=1;fontSize=10;" parent="T6cB0rv3VapHdPkZTwZW-26" vertex="1">
          <mxGeometry x="70" y="40" width="230" height="40" as="geometry" />
        </mxCell>
        <mxCell id="oBWqoQV49xNepyR7PkPC-9" value="&lt;span style=&quot;color: rgb(55, 65, 81); font-family: Söhne, ui-sans-serif, system-ui, -apple-system, &amp;quot;Segoe UI&amp;quot;, Roboto, Ubuntu, Cantarell, &amp;quot;Noto Sans&amp;quot;, sans-serif, &amp;quot;Helvetica Neue&amp;quot;, Arial, &amp;quot;Apple Color Emoji&amp;quot;, &amp;quot;Segoe UI Emoji&amp;quot;, &amp;quot;Segoe UI Symbol&amp;quot;, &amp;quot;Noto Color Emoji&amp;quot;; font-size: 10px; font-style: normal; font-variant-ligatures: normal; font-variant-caps: normal; font-weight: 400; letter-spacing: normal; orphans: 2; text-align: start; text-indent: 0px; text-transform: none; widows: 2; word-spacing: 0px; -webkit-text-stroke-width: 0px; background-color: rgb(247, 247, 248); text-decoration-thickness: initial; text-decoration-style: initial; text-decoration-color: initial; float: none; display: inline !important;&quot;&gt;RANSAC（随机抽样一致性）算法&lt;/span&gt;" style="text;whiteSpace=wrap;html=1;fontSize=10;" parent="T6cB0rv3VapHdPkZTwZW-26" vertex="1">
          <mxGeometry x="66" y="110" width="280" height="40" as="geometry" />
        </mxCell>
        <mxCell id="T6cB0rv3VapHdPkZTwZW-24" value="求解相机参数" style="rounded=1;whiteSpace=wrap;html=1;fontSize=10;glass=0;strokeWidth=1;shadow=0;" vertex="1" parent="T6cB0rv3VapHdPkZTwZW-26">
          <mxGeometry y="210" width="120" height="40" as="geometry" />
        </mxCell>
        <mxCell id="T6cB0rv3VapHdPkZTwZW-93" style="edgeStyle=orthogonalEdgeStyle;rounded=0;orthogonalLoop=1;jettySize=auto;html=1;exitX=1;exitY=0.5;exitDx=0;exitDy=0;entryX=0;entryY=0.5;entryDx=0;entryDy=0;" edge="1" parent="WIyWlLk6GJQsqaUBKTNV-1" source="T6cB0rv3VapHdPkZTwZW-59" target="T6cB0rv3VapHdPkZTwZW-76">
          <mxGeometry relative="1" as="geometry" />
        </mxCell>
        <mxCell id="T6cB0rv3VapHdPkZTwZW-59" value="求解相机参数" style="swimlane;whiteSpace=wrap;html=1;" vertex="1" parent="WIyWlLk6GJQsqaUBKTNV-1">
          <mxGeometry x="137.5" y="590" width="321" height="280" as="geometry">
            <mxRectangle x="128" y="585" width="110" height="30" as="alternateBounds" />
          </mxGeometry>
        </mxCell>
        <mxCell id="T6cB0rv3VapHdPkZTwZW-60" value="" style="group" vertex="1" connectable="0" parent="T6cB0rv3VapHdPkZTwZW-59">
          <mxGeometry x="102" y="23" width="346" height="250" as="geometry" />
        </mxCell>
        <mxCell id="T6cB0rv3VapHdPkZTwZW-75" style="edgeStyle=orthogonalEdgeStyle;rounded=0;orthogonalLoop=1;jettySize=auto;html=1;exitX=0.5;exitY=1;exitDx=0;exitDy=0;entryX=0.5;entryY=0;entryDx=0;entryDy=0;" edge="1" parent="T6cB0rv3VapHdPkZTwZW-60" source="T6cB0rv3VapHdPkZTwZW-62" target="T6cB0rv3VapHdPkZTwZW-66">
          <mxGeometry relative="1" as="geometry" />
        </mxCell>
        <mxCell id="T6cB0rv3VapHdPkZTwZW-62" value="读取图片RGB信息" style="rounded=1;whiteSpace=wrap;html=1;fontSize=10;glass=0;strokeWidth=1;shadow=0;" vertex="1" parent="T6cB0rv3VapHdPkZTwZW-60">
          <mxGeometry width="120" height="40" as="geometry" />
        </mxCell>
        <mxCell id="T6cB0rv3VapHdPkZTwZW-63" style="edgeStyle=orthogonalEdgeStyle;rounded=0;orthogonalLoop=1;jettySize=auto;html=1;exitX=0.5;exitY=1;exitDx=0;exitDy=0;entryX=0.517;entryY=0.05;entryDx=0;entryDy=0;fontSize=10;entryPerimeter=0;" edge="1" parent="T6cB0rv3VapHdPkZTwZW-60" source="T6cB0rv3VapHdPkZTwZW-64" target="T6cB0rv3VapHdPkZTwZW-70">
          <mxGeometry relative="1" as="geometry">
            <mxPoint x="62" y="210" as="targetPoint" />
          </mxGeometry>
        </mxCell>
        <mxCell id="T6cB0rv3VapHdPkZTwZW-64" value="计算本质矩阵" style="rounded=1;whiteSpace=wrap;html=1;fontSize=10;glass=0;strokeWidth=1;shadow=0;" vertex="1" parent="T6cB0rv3VapHdPkZTwZW-60">
          <mxGeometry y="151" width="120" height="40" as="geometry" />
        </mxCell>
        <mxCell id="T6cB0rv3VapHdPkZTwZW-65" style="edgeStyle=orthogonalEdgeStyle;rounded=0;orthogonalLoop=1;jettySize=auto;html=1;exitX=0.5;exitY=1;exitDx=0;exitDy=0;entryX=0.5;entryY=0;entryDx=0;entryDy=0;fontSize=10;" edge="1" parent="T6cB0rv3VapHdPkZTwZW-60" source="T6cB0rv3VapHdPkZTwZW-66">
          <mxGeometry relative="1" as="geometry">
            <mxPoint x="60" y="152" as="targetPoint" />
            <mxPoint x="60.000000000000114" y="122" as="sourcePoint" />
          </mxGeometry>
        </mxCell>
        <mxCell id="T6cB0rv3VapHdPkZTwZW-66" value="特征提取与匹配" style="rounded=1;whiteSpace=wrap;html=1;fontSize=10;glass=0;strokeWidth=1;shadow=0;" vertex="1" parent="T6cB0rv3VapHdPkZTwZW-60">
          <mxGeometry y="70" width="120" height="40" as="geometry" />
        </mxCell>
        <mxCell id="T6cB0rv3VapHdPkZTwZW-67" value="奇异值分解" style="text;html=1;align=center;verticalAlign=middle;resizable=0;points=[];autosize=1;strokeColor=none;fillColor=none;fontSize=10;" vertex="1" parent="T6cB0rv3VapHdPkZTwZW-60">
          <mxGeometry x="71" y="186" width="80" height="30" as="geometry" />
        </mxCell>
        <mxCell id="T6cB0rv3VapHdPkZTwZW-68" value="&lt;span style=&quot;color: rgb(55, 65, 81); font-family: Söhne, ui-sans-serif, system-ui, -apple-system, &amp;quot;Segoe UI&amp;quot;, Roboto, Ubuntu, Cantarell, &amp;quot;Noto Sans&amp;quot;, sans-serif, &amp;quot;Helvetica Neue&amp;quot;, Arial, &amp;quot;Apple Color Emoji&amp;quot;, &amp;quot;Segoe UI Emoji&amp;quot;, &amp;quot;Segoe UI Symbol&amp;quot;, &amp;quot;Noto Color Emoji&amp;quot;; font-size: 10px; font-style: normal; font-variant-ligatures: normal; font-variant-caps: normal; font-weight: 400; letter-spacing: normal; orphans: 2; text-align: start; text-indent: 0px; text-transform: none; widows: 2; word-spacing: 0px; -webkit-text-stroke-width: 0px; background-color: rgb(247, 247, 248); text-decoration-thickness: initial; text-decoration-style: initial; text-decoration-color: initial; float: none; display: inline !important;&quot;&gt;SIFT（尺度不变特征变换）&lt;/span&gt;" style="text;whiteSpace=wrap;html=1;fontSize=10;" vertex="1" parent="T6cB0rv3VapHdPkZTwZW-60">
          <mxGeometry x="70" y="40" width="150" height="40" as="geometry" />
        </mxCell>
        <mxCell id="T6cB0rv3VapHdPkZTwZW-69" value="&lt;span style=&quot;color: rgb(55, 65, 81); font-family: Söhne, ui-sans-serif, system-ui, -apple-system, &amp;quot;Segoe UI&amp;quot;, Roboto, Ubuntu, Cantarell, &amp;quot;Noto Sans&amp;quot;, sans-serif, &amp;quot;Helvetica Neue&amp;quot;, Arial, &amp;quot;Apple Color Emoji&amp;quot;, &amp;quot;Segoe UI Emoji&amp;quot;, &amp;quot;Segoe UI Symbol&amp;quot;, &amp;quot;Noto Color Emoji&amp;quot;; font-size: 10px; font-style: normal; font-variant-ligatures: normal; font-variant-caps: normal; font-weight: 400; letter-spacing: normal; orphans: 2; text-align: start; text-indent: 0px; text-transform: none; widows: 2; word-spacing: 0px; -webkit-text-stroke-width: 0px; background-color: rgb(247, 247, 248); text-decoration-thickness: initial; text-decoration-style: initial; text-decoration-color: initial; float: none; display: inline !important;&quot;&gt;RANSAC（随机抽样一致性）算法&lt;/span&gt;" style="text;whiteSpace=wrap;html=1;fontSize=10;" vertex="1" parent="T6cB0rv3VapHdPkZTwZW-60">
          <mxGeometry x="66" y="110" width="144" height="40" as="geometry" />
        </mxCell>
        <mxCell id="T6cB0rv3VapHdPkZTwZW-70" value="求解相机参数" style="rounded=1;whiteSpace=wrap;html=1;fontSize=10;glass=0;strokeWidth=1;shadow=0;" vertex="1" parent="T6cB0rv3VapHdPkZTwZW-60">
          <mxGeometry y="215" width="120" height="40" as="geometry" />
        </mxCell>
        <mxCell id="T6cB0rv3VapHdPkZTwZW-76" value="估计深度信息" style="swimlane;whiteSpace=wrap;html=1;startSize=23;" vertex="1" parent="WIyWlLk6GJQsqaUBKTNV-1">
          <mxGeometry x="487" y="590" width="340" height="280" as="geometry">
            <mxRectangle x="570" y="585" width="110" height="30" as="alternateBounds" />
          </mxGeometry>
        </mxCell>
        <mxCell id="T6cB0rv3VapHdPkZTwZW-77" value="" style="group" vertex="1" connectable="0" parent="T6cB0rv3VapHdPkZTwZW-76">
          <mxGeometry x="102" y="23" width="346" height="250" as="geometry" />
        </mxCell>
        <mxCell id="T6cB0rv3VapHdPkZTwZW-78" style="edgeStyle=orthogonalEdgeStyle;rounded=0;orthogonalLoop=1;jettySize=auto;html=1;exitX=0.5;exitY=1;exitDx=0;exitDy=0;entryX=0.5;entryY=0;entryDx=0;entryDy=0;" edge="1" parent="T6cB0rv3VapHdPkZTwZW-77" source="T6cB0rv3VapHdPkZTwZW-79" target="T6cB0rv3VapHdPkZTwZW-83">
          <mxGeometry relative="1" as="geometry" />
        </mxCell>
        <mxCell id="T6cB0rv3VapHdPkZTwZW-79" value="读取图片RGB信息" style="rounded=1;whiteSpace=wrap;html=1;fontSize=10;glass=0;strokeWidth=1;shadow=0;" vertex="1" parent="T6cB0rv3VapHdPkZTwZW-77">
          <mxGeometry width="120" height="40" as="geometry" />
        </mxCell>
        <mxCell id="T6cB0rv3VapHdPkZTwZW-80" style="edgeStyle=orthogonalEdgeStyle;rounded=0;orthogonalLoop=1;jettySize=auto;html=1;exitX=0.5;exitY=1;exitDx=0;exitDy=0;entryX=0.517;entryY=0.05;entryDx=0;entryDy=0;fontSize=10;entryPerimeter=0;" edge="1" parent="T6cB0rv3VapHdPkZTwZW-77" source="T6cB0rv3VapHdPkZTwZW-81" target="T6cB0rv3VapHdPkZTwZW-87">
          <mxGeometry relative="1" as="geometry">
            <mxPoint x="62" y="210" as="targetPoint" />
          </mxGeometry>
        </mxCell>
        <mxCell id="T6cB0rv3VapHdPkZTwZW-81" value="计算本质矩阵" style="rounded=1;whiteSpace=wrap;html=1;fontSize=10;glass=0;strokeWidth=1;shadow=0;" vertex="1" parent="T6cB0rv3VapHdPkZTwZW-77">
          <mxGeometry y="151" width="120" height="40" as="geometry" />
        </mxCell>
        <mxCell id="T6cB0rv3VapHdPkZTwZW-82" style="edgeStyle=orthogonalEdgeStyle;rounded=0;orthogonalLoop=1;jettySize=auto;html=1;exitX=0.5;exitY=1;exitDx=0;exitDy=0;entryX=0.5;entryY=0;entryDx=0;entryDy=0;fontSize=10;" edge="1" parent="T6cB0rv3VapHdPkZTwZW-77" source="T6cB0rv3VapHdPkZTwZW-83">
          <mxGeometry relative="1" as="geometry">
            <mxPoint x="60" y="152" as="targetPoint" />
            <mxPoint x="60.000000000000114" y="122" as="sourcePoint" />
          </mxGeometry>
        </mxCell>
        <mxCell id="T6cB0rv3VapHdPkZTwZW-83" value="特征提取与匹配" style="rounded=1;whiteSpace=wrap;html=1;fontSize=10;glass=0;strokeWidth=1;shadow=0;" vertex="1" parent="T6cB0rv3VapHdPkZTwZW-77">
          <mxGeometry y="70" width="120" height="40" as="geometry" />
        </mxCell>
        <mxCell id="T6cB0rv3VapHdPkZTwZW-84" value="奇异值分解" style="text;html=1;align=center;verticalAlign=middle;resizable=0;points=[];autosize=1;strokeColor=none;fillColor=none;fontSize=10;" vertex="1" parent="T6cB0rv3VapHdPkZTwZW-77">
          <mxGeometry x="71" y="186" width="80" height="30" as="geometry" />
        </mxCell>
        <mxCell id="T6cB0rv3VapHdPkZTwZW-85" value="&lt;span style=&quot;color: rgb(55, 65, 81); font-family: Söhne, ui-sans-serif, system-ui, -apple-system, &amp;quot;Segoe UI&amp;quot;, Roboto, Ubuntu, Cantarell, &amp;quot;Noto Sans&amp;quot;, sans-serif, &amp;quot;Helvetica Neue&amp;quot;, Arial, &amp;quot;Apple Color Emoji&amp;quot;, &amp;quot;Segoe UI Emoji&amp;quot;, &amp;quot;Segoe UI Symbol&amp;quot;, &amp;quot;Noto Color Emoji&amp;quot;; font-size: 10px; font-style: normal; font-variant-ligatures: normal; font-variant-caps: normal; font-weight: 400; letter-spacing: normal; orphans: 2; text-align: start; text-indent: 0px; text-transform: none; widows: 2; word-spacing: 0px; -webkit-text-stroke-width: 0px; background-color: rgb(247, 247, 248); text-decoration-thickness: initial; text-decoration-style: initial; text-decoration-color: initial; float: none; display: inline !important;&quot;&gt;SIFT（尺度不变特征变换）&lt;/span&gt;" style="text;whiteSpace=wrap;html=1;fontSize=10;" vertex="1" parent="T6cB0rv3VapHdPkZTwZW-77">
          <mxGeometry x="70" y="40" width="150" height="40" as="geometry" />
        </mxCell>
        <mxCell id="T6cB0rv3VapHdPkZTwZW-86" value="&lt;span style=&quot;color: rgb(55, 65, 81); font-family: Söhne, ui-sans-serif, system-ui, -apple-system, &amp;quot;Segoe UI&amp;quot;, Roboto, Ubuntu, Cantarell, &amp;quot;Noto Sans&amp;quot;, sans-serif, &amp;quot;Helvetica Neue&amp;quot;, Arial, &amp;quot;Apple Color Emoji&amp;quot;, &amp;quot;Segoe UI Emoji&amp;quot;, &amp;quot;Segoe UI Symbol&amp;quot;, &amp;quot;Noto Color Emoji&amp;quot;; font-size: 10px; font-style: normal; font-variant-ligatures: normal; font-variant-caps: normal; font-weight: 400; letter-spacing: normal; orphans: 2; text-align: start; text-indent: 0px; text-transform: none; widows: 2; word-spacing: 0px; -webkit-text-stroke-width: 0px; background-color: rgb(247, 247, 248); text-decoration-thickness: initial; text-decoration-style: initial; text-decoration-color: initial; float: none; display: inline !important;&quot;&gt;RANSAC（随机抽样一致性）算法&lt;/span&gt;" style="text;whiteSpace=wrap;html=1;fontSize=10;" vertex="1" parent="T6cB0rv3VapHdPkZTwZW-77">
          <mxGeometry x="66" y="110" width="144" height="40" as="geometry" />
        </mxCell>
        <mxCell id="T6cB0rv3VapHdPkZTwZW-87" value="求解相机参数" style="rounded=1;whiteSpace=wrap;html=1;fontSize=10;glass=0;strokeWidth=1;shadow=0;" vertex="1" parent="T6cB0rv3VapHdPkZTwZW-77">
          <mxGeometry y="215" width="120" height="40" as="geometry" />
        </mxCell>
        <mxCell id="T6cB0rv3VapHdPkZTwZW-97" value="体渲染" style="rounded=1;whiteSpace=wrap;html=1;fontSize=10;glass=0;strokeWidth=1;shadow=0;" vertex="1" parent="WIyWlLk6GJQsqaUBKTNV-1">
          <mxGeometry x="660" y="930" width="47" height="100" as="geometry" />
        </mxCell>
        <mxCell id="T6cB0rv3VapHdPkZTwZW-99" style="edgeStyle=orthogonalEdgeStyle;rounded=0;orthogonalLoop=1;jettySize=auto;html=1;exitX=0.5;exitY=1;exitDx=0;exitDy=0;entryX=0;entryY=0.5;entryDx=0;entryDy=0;" edge="1" parent="WIyWlLk6GJQsqaUBKTNV-1" source="T6cB0rv3VapHdPkZTwZW-70" target="T6cB0rv3VapHdPkZTwZW-102">
          <mxGeometry relative="1" as="geometry">
            <mxPoint x="300" y="1090" as="targetPoint" />
          </mxGeometry>
        </mxCell>
        <mxCell id="T6cB0rv3VapHdPkZTwZW-108" style="edgeStyle=orthogonalEdgeStyle;rounded=0;orthogonalLoop=1;jettySize=auto;html=1;entryX=0.5;entryY=0;entryDx=0;entryDy=0;" edge="1" parent="WIyWlLk6GJQsqaUBKTNV-1" source="T6cB0rv3VapHdPkZTwZW-95" target="T6cB0rv3VapHdPkZTwZW-102">
          <mxGeometry relative="1" as="geometry" />
        </mxCell>
        <mxCell id="T6cB0rv3VapHdPkZTwZW-109" style="edgeStyle=orthogonalEdgeStyle;rounded=0;orthogonalLoop=1;jettySize=auto;html=1;" edge="1" parent="WIyWlLk6GJQsqaUBKTNV-1" source="T6cB0rv3VapHdPkZTwZW-95">
          <mxGeometry relative="1" as="geometry">
            <mxPoint x="660" y="958" as="targetPoint" />
          </mxGeometry>
        </mxCell>
        <mxCell id="T6cB0rv3VapHdPkZTwZW-95" value="多层感知机" style="rounded=1;whiteSpace=wrap;html=1;fontSize=10;glass=0;strokeWidth=1;shadow=0;" vertex="1" parent="WIyWlLk6GJQsqaUBKTNV-1">
          <mxGeometry x="480" y="938" width="120" height="40" as="geometry" />
        </mxCell>
        <mxCell id="T6cB0rv3VapHdPkZTwZW-110" style="edgeStyle=orthogonalEdgeStyle;rounded=0;orthogonalLoop=1;jettySize=auto;html=1;exitX=1;exitY=0.5;exitDx=0;exitDy=0;entryX=0.5;entryY=1;entryDx=0;entryDy=0;" edge="1" parent="WIyWlLk6GJQsqaUBKTNV-1" source="T6cB0rv3VapHdPkZTwZW-102" target="T6cB0rv3VapHdPkZTwZW-97">
          <mxGeometry relative="1" as="geometry">
            <mxPoint x="670" y="1090.0434782608697" as="targetPoint" />
          </mxGeometry>
        </mxCell>
        <mxCell id="T6cB0rv3VapHdPkZTwZW-102" value="多层感知机" style="rounded=1;whiteSpace=wrap;html=1;fontSize=10;glass=0;strokeWidth=1;shadow=0;" vertex="1" parent="WIyWlLk6GJQsqaUBKTNV-1">
          <mxGeometry x="480" y="1070" width="120" height="40" as="geometry" />
        </mxCell>
        <mxCell id="T6cB0rv3VapHdPkZTwZW-92" value="sdf值" style="text;html=1;align=center;verticalAlign=middle;resizable=0;points=[];autosize=1;strokeColor=none;fillColor=none;" vertex="1" parent="WIyWlLk6GJQsqaUBKTNV-1">
          <mxGeometry x="600" y="930" width="50" height="30" as="geometry" />
        </mxCell>
        <mxCell id="T6cB0rv3VapHdPkZTwZW-107" value="位置编码" style="swimlane;whiteSpace=wrap;html=1;" vertex="1" parent="WIyWlLk6GJQsqaUBKTNV-1">
          <mxGeometry x="140" y="890" width="200" height="200" as="geometry" />
        </mxCell>
        <mxCell id="T6cB0rv3VapHdPkZTwZW-111" value="&lt;span style=&quot;color: rgb(0, 0, 0); font-family: Helvetica; font-size: 12px; font-style: normal; font-variant-ligatures: normal; font-variant-caps: normal; font-weight: 400; letter-spacing: normal; orphans: 2; text-align: center; text-indent: 0px; text-transform: none; widows: 2; word-spacing: 0px; -webkit-text-stroke-width: 0px; background-color: rgb(251, 251, 251); text-decoration-thickness: initial; text-decoration-style: initial; text-decoration-color: initial; float: none; display: inline !important;&quot;&gt;RGB&lt;/span&gt;" style="text;whiteSpace=wrap;html=1;" vertex="1" parent="WIyWlLk6GJQsqaUBKTNV-1">
          <mxGeometry x="610" y="1060" width="70" height="40" as="geometry" />
        </mxCell>
      </root>
    </mxGraphModel>
  </diagram>
</mxfile>
